<?xml version="1.0" standalone="no"?>
<svg version="1.0" xmlns="http://www.w3.org/2000/svg"
 width="512.000000pt" height="512.000000pt" viewBox="0 0 512.000000 512.000000"
 preserveAspectRatio="xMidYMid meet">
<g transform="translate(0.000000,512.000000) scale(0.100000,-0.100000)"
fill="#000000" stroke="none">
<path d="M2576 4875 c-173 -33 -389 -127 -518 -224 -87 -67 -310 -309 -375
-408 -101 -154 -166 -328 -184 -491 -6 -54 -18 -110 -26 -127 -9 -16 -23 -44
-31 -61 -14 -29 -20 -32 -81 -38 -122 -13 -304 -70 -337 -107 -26 -29 -13
-153 19 -188 14 -14 35 -57 47 -96 35 -111 88 -214 133 -259 43 -42 86 -61
172 -73 l47 -6 -6 -46 c-21 -148 -19 -181 18 -349 42 -183 58 -233 146 -452
69 -172 74 -189 89 -309 12 -94 41 -156 92 -192 l31 -22 -134 -53 c-166 -64
-496 -222 -977 -468 -340 -173 -468 -244 -326 -181 575 257 859 376 1050 440
148 49 199 71 230 98 68 57 106 76 50 23 -70 -65 -176 -146 -430 -330 -265
-191 -348 -257 -375 -301 -30 -48 -26 -65 14 -65 26 0 491 136 572 167 8 3
-11 -30 -42 -73 -86 -120 -135 -209 -141 -253 -8 -62 12 -62 116 -2 49 28 92
51 97 51 5 0 38 -41 73 -91 36 -49 71 -94 78 -100 10 -9 26 17 73 117 34 71
78 156 99 189 25 38 53 106 77 184 37 119 51 136 53 61 2 -47 48 -125 112
-187 95 -93 116 -105 74 -44 -18 28 -43 79 -54 113 -42 127 -51 194 -51 411 0
114 2 207 5 207 11 0 115 -73 115 -80 0 -15 179 -246 221 -285 50 -47 36 -24
-41 68 -62 73 -164 217 -155 217 4 0 15 -5 26 -10 10 -6 62 -21 115 -34 103
-26 126 -40 155 -98 11 -21 28 -42 39 -48 60 -32 337 98 551 257 112 83 256
231 325 333 59 87 119 208 109 219 -3 2 -15 -9 -27 -25 -78 -102 -330 -336
-473 -438 -147 -106 -321 -187 -434 -202 -45 -6 -51 -4 -51 11 0 34 51 85 120
120 135 68 247 140 422 272 197 149 244 199 312 334 41 81 95 264 82 277 -3 3
-6 -2 -6 -11 0 -29 -108 -231 -152 -284 -55 -66 -177 -177 -259 -235 -133 -95
-340 -206 -464 -250 -65 -23 -165 -43 -165 -33 0 2 50 55 111 116 61 61 131
139 155 171 121 165 229 495 209 638 -12 91 -44 158 -85 180 -13 7 -9 -4 15
-40 41 -61 50 -100 42 -189 -8 -92 -38 -177 -107 -301 -33 -58 -75 -152 -95
-208 -20 -57 -46 -120 -59 -140 -35 -56 -144 -153 -211 -188 -89 -47 -152 -59
-305 -59 -154 0 -225 17 -293 69 -56 43 -77 90 -92 209 -12 88 -25 131 -88
288 -94 232 -110 282 -147 452 -29 131 -37 230 -24 294 5 26 12 30 84 49 l78
20 4 -81 c3 -67 0 -88 -19 -130 -30 -68 -44 -165 -36 -250 6 -57 8 -64 14 -40
4 19 7 22 8 10 0 -11 28 -105 60 -210 33 -104 64 -210 70 -235 10 -44 10 -44
7 20 -2 39 -18 108 -39 173 -32 98 -33 107 -16 102 16 -5 19 -1 19 21 0 22 3
25 12 16 7 -7 15 -49 19 -94 5 -72 9 -84 32 -104 15 -13 44 -28 65 -33 47 -14
222 -14 242 -1 17 11 -1 12 -165 14 -143 1 -178 31 -160 134 10 64 18 68 59
37 28 -22 42 -26 63 -20 16 4 69 9 118 10 50 1 100 7 112 13 12 7 40 12 62 12
22 0 42 4 45 8 2 4 26 7 53 5 26 -1 68 -3 93 -3 66 -2 26 -15 -118 -39 -209
-36 -218 -38 -210 -47 3 -3 68 7 144 22 132 25 138 26 151 8 15 -20 18 -48 4
-40 -5 3 -12 -1 -15 -10 -8 -20 50 13 177 99 87 59 88 59 110 41 33 -28 37
-36 31 -64 -8 -38 37 47 47 90 13 55 -15 125 -73 182 -26 27 -53 46 -59 43 -5
-4 -16 -1 -24 5 -8 6 -19 9 -24 6 -5 -4 -12 -2 -16 4 -4 6 -10 8 -15 5 -5 -3
-17 -1 -27 4 -22 12 -80 27 -188 49 -44 10 -85 20 -92 25 -6 4 -15 3 -18 -3
-5 -8 -11 -8 -20 0 -8 6 -19 10 -27 8 -7 -1 -15 2 -18 7 -3 6 30 12 85 16 133
8 183 42 208 137 l13 52 160 -162 c170 -172 197 -211 213 -308 l9 -55 2 45 c1
35 3 41 10 25 7 -16 9 -14 9 15 1 65 -40 130 -170 266 -118 123 -174 195 -162
208 4 3 28 6 55 6 27 0 74 9 105 20 114 40 162 89 206 209 12 36 29 67 36 69
9 3 11 0 6 -8 -5 -9 -4 -11 3 -6 13 8 69 -20 129 -66 24 -17 46 -29 49 -25 10
10 -61 74 -118 106 l-50 29 54 7 c79 10 115 21 144 44 l27 21 -69 -6 c-50 -5
-79 -2 -104 8 l-35 15 50 7 c28 3 142 13 255 21 113 8 224 18 248 21 48 7 43
23 46 -146 1 -78 4 -95 16 -92 12 2 11 -1 -2 -11 -12 -9 -16 -24 -13 -50 1
-20 -1 -40 -6 -43 -5 -3 -7 -21 -3 -40 4 -21 2 -40 -5 -48 -7 -8 -8 -17 -3
-20 5 -3 8 -26 6 -51 -5 -70 11 -53 26 26 10 56 10 73 0 79 -9 5 -9 9 -1 14 6
4 11 4 11 -1 0 -4 14 18 30 49 37 73 163 224 193 232 12 3 32 6 44 6 12 0 50
14 84 31 47 24 69 30 97 26 96 -16 159 -167 132 -316 -11 -62 -39 -145 -46
-138 -2 1 6 48 17 102 28 136 14 221 -45 280 -19 19 -35 25 -70 25 -61 0 -102
-37 -156 -141 -34 -66 -44 -78 -56 -68 -11 9 -14 8 -14 -7 1 -11 7 -30 15 -44
22 -39 18 -74 -15 -115 -36 -45 -40 -89 -10 -105 17 -9 26 -7 51 14 18 15 43
26 60 26 37 0 85 24 99 49 26 49 3 161 -33 161 -7 0 -29 14 -50 31 -26 22 -37
38 -35 53 2 11 8 20 13 19 22 -3 45 19 45 42 0 15 10 31 26 41 23 16 28 16 59
1 42 -20 81 -85 96 -161 24 -119 -46 -324 -139 -407 -113 -100 -213 -99 -256
3 -10 23 -16 28 -20 18 -5 -14 -36 -210 -36 -230 0 -13 48 8 76 33 15 12 33
17 55 15 l34 -3 -1 -110 c-1 -60 -4 -247 -6 -415 l-5 -305 -37 -117 c-34 -112
-46 -188 -28 -188 5 0 15 11 22 25 19 36 25 22 7 -15 -32 -63 -281 -402 -324
-440 -63 -55 -175 -120 -315 -182 -66 -29 -115 -54 -110 -56 13 -4 151 51 254
103 l88 43 -90 -96 c-89 -98 -311 -364 -306 -369 2 -2 95 41 207 96 186 90
330 157 664 308 66 30 129 63 140 73 11 10 52 71 90 134 l70 115 41 1 c60 0
324 -80 564 -171 41 -16 77 -26 81 -21 16 16 36 98 30 117 -7 18 -476 318
-543 346 -30 12 -32 17 -19 38 7 11 13 12 23 4 18 -15 376 -230 476 -287 46
-26 87 -45 90 -42 10 10 -4 19 -283 184 -148 87 -283 172 -299 188 -16 16 -86
128 -157 249 -144 249 -167 279 -250 335 -74 51 -77 70 -11 70 81 0 127 40
142 121 12 61 -4 122 -51 200 -36 60 -39 71 -33 110 9 62 19 76 91 143 83 76
136 154 162 241 26 83 38 225 23 278 -8 29 -7 56 4 110 22 112 28 288 15 419
-49 477 -243 803 -608 1022 -141 84 -355 171 -513 207 -116 27 -347 34 -454
14z m41 -251 c195 -39 547 -191 638 -275 93 -86 128 -227 85 -344 -12 -33 -23
-70 -23 -82 -1 -11 -5 -19 -10 -16 -4 2 -12 -8 -17 -22 -20 -53 -12 -89 41
-176 93 -151 148 -263 136 -275 -7 -7 -519 76 -540 88 -12 6 -38 23 -57 38
-19 15 -64 43 -99 61 -63 33 -68 34 -180 34 -145 -1 -238 -8 -275 -24 -16 -6
-36 -9 -46 -6 -9 3 -23 -2 -30 -10 -9 -11 -15 -13 -20 -5 -4 7 -15 -2 -27 -22
-18 -30 -32 -38 -133 -72 -76 -25 -133 -38 -177 -39 -60 -2 -67 0 -81 23 -30
46 -89 97 -122 104 -18 3 -68 6 -112 6 -73 0 -79 2 -72 18 4 9 13 62 20 117
35 261 163 508 361 696 118 112 241 174 398 199 78 12 244 4 342 -16z m1045
-270 c76 -17 143 -42 135 -50 -2 -2 -17 0 -33 7 -16 6 -74 21 -129 34 -55 13
-87 24 -72 24 15 1 60 -6 99 -15z m-27 -90 c104 -26 195 -93 265 -191 l34 -48
-53 48 c-29 28 -87 65 -134 88 -82 38 -91 47 -29 30 20 -6 30 -6 27 0 -11 17
-86 50 -158 69 -49 13 -62 19 -42 19 17 1 58 -6 90 -15z m10 -340 c35 -9 99
-33 142 -54 43 -21 79 -37 81 -35 2 2 -34 26 -79 54 -90 55 -97 66 -15 25 52
-26 152 -98 163 -118 3 -6 0 -5 -8 2 -31 29 -30 9 2 -24 l34 -37 -48 37 c-104
78 -218 128 -342 151 -55 10 -62 13 -32 14 21 1 67 -6 102 -15z m38 -65 c58
-17 187 -82 187 -94 0 -2 -29 9 -65 25 -79 35 -125 48 -230 65 -62 10 -71 13
-40 15 33 1 37 3 20 11 -32 15 50 1 128 -22z m-349 2 c3 -5 -1 -11 -9 -15 -15
-6 -29 7 -18 18 9 9 21 8 27 -3z m542 -246 c22 -13 47 -32 55 -42 13 -16 12
-17 -3 -5 -9 8 -45 29 -80 48 -35 19 -52 32 -38 29 14 -4 43 -18 66 -30z
m-1146 -75 c36 -6 82 -16 103 -22 l37 -11 0 -99 c0 -56 -4 -98 -10 -98 -17 0
-30 -36 -51 -141 -23 -118 -47 -186 -84 -239 -93 -135 -434 -149 -559 -24 -68
69 -147 209 -186 329 -28 89 -55 115 -119 115 -58 0 -71 -12 -71 -65 0 -57
-32 -179 -68 -256 -67 -146 -132 -197 -260 -206 -189 -13 -269 56 -353 306
-16 47 -41 97 -55 112 -23 24 -25 32 -22 100 l3 74 75 32 c162 68 383 85 570
42 52 -12 131 -23 175 -26 73 -4 92 -1 207 36 70 22 156 45 190 50 77 12 388
6 478 -9z m380 -76 c392 -62 481 -77 567 -95 118 -24 163 -42 163 -67 0 -18
-3 -18 -47 -7 -34 9 -129 11 -332 7 -189 -3 -333 -1 -428 8 l-143 13 0 90 0
90 33 -7 c17 -4 102 -18 187 -32z m-1141 -249 c51 -150 145 -300 230 -368 56
-44 70 -70 71 -129 0 -38 -5 -50 -26 -67 -27 -21 -40 -20 -107 16 -20 10 -56
17 -97 17 -57 1 -73 -3 -135 -38 -78 -43 -122 -49 -174 -22 -21 11 -43 15 -62
11 -25 -6 -30 -3 -40 22 -15 38 -6 123 15 138 9 7 16 22 16 34 0 28 169 360
216 424 21 28 41 47 51 45 9 -2 26 -34 42 -83z m1531 -299 c0 -3 -4 -8 -10
-11 -5 -3 -10 -1 -10 4 0 6 5 11 10 11 6 0 10 -2 10 -4z m364 -122 c9 -30 -18
-56 -47 -45 -18 7 -23 18 -28 68 -3 33 -9 66 -14 74 -4 8 13 -6 38 -31 25 -25
48 -55 51 -66z m-2116 -243 c53 -17 62 -35 13 -25 -22 5 -36 -3 -80 -47 -29
-29 -62 -66 -73 -83 l-20 -31 6 45 c4 25 20 74 36 109 25 51 33 62 47 56 10
-4 42 -15 71 -24z m277 -11 c-3 -5 -11 -10 -16 -10 -6 0 -7 5 -4 10 3 6 11 10
16 10 6 0 7 -4 4 -10z m-136 -26 c10 -9 -56 -3 -69 7 -11 7 -4 8 25 3 22 -4
42 -8 44 -10z m211 -74 c126 -13 217 -35 292 -70 45 -22 28 -20 -60 6 -160 46
-281 56 -368 29 -59 -18 -96 -19 -163 -3 -44 10 -57 9 -87 -5 -40 -20 -48 -21
-39 -7 4 6 24 19 45 30 33 17 51 19 108 14 52 -5 70 -3 79 8 13 15 28 14 193
-2z m202 -125 c61 -14 114 -28 117 -31 3 -4 -5 -4 -19 -2 -14 3 -76 16 -138
29 -108 22 -119 22 -205 9 -51 -8 -144 -14 -207 -14 -94 -1 -121 -4 -143 -19
-38 -25 -53 -17 -29 13 20 25 23 25 170 25 83 0 154 3 158 8 17 17 187 7 296
-18z m-232 -30 c11 -13 15 -13 33 0 31 21 73 19 90 -5 13 -18 16 -19 27 -5 14
17 70 21 70 5 0 -7 13 -8 36 -4 30 6 36 4 41 -14 4 -18 7 -19 19 -7 24 24 40
8 36 -35 -4 -41 -33 -63 -54 -42 -7 7 -18 6 -33 -4 -20 -13 -25 -13 -38 1 -9
8 -18 11 -21 6 -11 -17 -46 -19 -62 -4 -13 14 -16 14 -27 0 -20 -27 -63 -31
-85 -9 -20 20 -20 20 -30 -4 -12 -25 -63 -40 -110 -31 -15 2 -50 2 -79 -2 -29
-4 -50 -4 -47 1 3 4 1 8 -5 8 -13 0 -85 70 -99 96 -21 39 24 59 60 27 10 -9
18 -11 18 -5 0 18 58 25 88 9 24 -12 31 -12 50 1 20 13 68 28 98 31 6 1 17 -6
24 -14z m411 -41 c11 -14 10 -19 -10 -35 -30 -24 -41 -24 -41 0 0 49 25 66 51
35z m1512 -794 c27 -49 47 -98 45 -108 -3 -11 -16 5 -37 48 -58 111 -80 143
-95 131 -8 -6 -39 -54 -71 -106 -72 -120 -91 -134 -31 -24 26 46 58 110 73
143 l27 59 20 -26 c12 -15 43 -67 69 -117z m-2015 -84 c1 -2 -32 -81 -73 -177
-42 -96 -101 -241 -131 -324 -63 -171 -72 -187 -156 -297 l-61 -81 -19 23
c-10 12 -18 32 -18 45 0 66 86 308 168 470 24 49 131 213 200 308 30 42 38 48
61 42 14 -4 27 -8 29 -9z m2212 -50 c0 -14 -67 -156 -74 -156 -3 0 3 24 13 53
10 29 22 72 26 95 6 35 9 41 21 31 8 -6 14 -17 14 -23z"/>
<path d="M2160 3883 c-117 -21 -248 -52 -220 -52 35 -1 290 46 299 54 5 6 -43
4 -79 -2z"/>
<path d="M2945 3705 c61 -54 87 -62 30 -10 -27 25 -54 45 -60 45 -5 0 8 -16
30 -35z"/>
<path d="M3875 3820 c3 -5 11 -10 16 -10 6 0 7 5 4 10 -3 6 -11 10 -16 10 -6
0 -7 -4 -4 -10z"/>
<path d="M2275 3514 c-11 -2 -45 -9 -75 -15 -116 -24 -176 -70 -190 -150 -26
-143 101 -381 242 -452 95 -48 254 -55 355 -16 97 37 144 122 151 274 9 201
-49 304 -191 342 -52 14 -255 26 -292 17z m193 -106 c7 -7 12 -26 12 -43 0
-17 -5 -36 -12 -43 -43 -43 -93 34 -51 80 19 21 34 23 51 6z m-354 -307 c8
-15 31 -50 51 -76 20 -26 34 -49 32 -51 -8 -8 -107 131 -107 150 0 14 11 4 24
-23z"/>
<path d="M1365 3474 c-136 -19 -216 -65 -236 -137 -21 -78 7 -242 59 -342 53
-105 110 -138 232 -138 131 0 211 48 269 162 33 64 61 181 61 254 0 145 -57
189 -260 200 -52 3 -108 3 -125 1z m195 -54 c0 -6 -9 -20 -20 -32 -11 -12 -20
-28 -20 -35 0 -22 -18 -14 -22 10 -2 13 6 31 20 45 25 24 42 29 42 12z m74
-42 c21 -30 20 -54 -4 -78 -41 -41 -88 25 -55 76 19 30 39 31 59 2z m-59 -381
c-31 -53 -31 -56 -2 -50 22 5 22 5 2 -9 -11 -8 -27 -17 -36 -21 -15 -5 -15 -3
-1 26 21 44 53 97 58 97 3 0 -7 -20 -21 -43z"/>
<path d="M2730 3405 c0 -10 11 -15 35 -15 24 0 35 5 35 15 0 10 -11 15 -35 15
-24 0 -35 -5 -35 -15z"/>
<path d="M1050 3360 c0 -5 14 -10 30 -10 17 0 30 5 30 10 0 6 -13 10 -30 10
-16 0 -30 -4 -30 -10z"/>
<path d="M2970 3407 c0 -17 29 -27 87 -27 39 0 63 12 45 24 -4 2 -36 8 -70 12
-52 5 -62 4 -62 -9z"/>
<path d="M1763 967 c-51 -90 -84 -167 -78 -177 3 -5 -1 -11 -7 -13 -7 -3 -8
-6 -3 -6 29 -1 63 51 99 152 21 60 36 110 34 113 -2 2 -23 -29 -45 -69z"/>
<path d="M3950 3078 c0 -2 9 -27 20 -56 11 -29 20 -67 21 -85 1 -17 5 -43 10
-57 6 -18 8 -4 5 45 -2 47 -10 84 -25 113 -18 35 -31 52 -31 40z"/>
<path d="M3948 2745 c-9 -12 -38 -31 -63 -41 -29 -12 -44 -24 -42 -34 7 -34
79 4 111 59 22 38 18 49 -6 16z"/>
<path d="M3448 2673 c-2 -10 -1 -29 3 -43 6 -20 7 -17 8 18 1 44 -4 54 -11 25z"/>
<path d="M2678 2140 c-4 -14 -20 -63 -36 -110 -16 -47 -32 -106 -36 -130 l-7
-45 21 42 c25 52 73 228 68 251 -3 12 -6 10 -10 -8z"/>
<path d="M2368 2051 c-53 -40 -183 -106 -248 -126 -30 -9 -107 -19 -170 -22
-93 -4 -122 -2 -154 11 -52 22 -55 15 -9 -19 75 -56 103 -88 110 -128 3 -21
13 -42 24 -47 10 -6 55 -10 100 -10 81 0 81 0 120 39 22 21 39 45 39 54 0 8
-21 28 -46 45 l-47 30 85 40 c90 42 190 105 222 141 25 28 19 26 -26 -8z"/>
<path d="M1933 2063 c9 -2 25 -2 35 0 9 3 1 5 -18 5 -19 0 -27 -2 -17 -5z"/>
<path d="M1953 2023 c9 -2 25 -2 35 0 9 3 1 5 -18 5 -19 0 -27 -2 -17 -5z"/>
<path d="M2500 1628 c-79 -67 -342 -146 -364 -110 -3 5 -54 7 -114 4 -88 -4
-117 -1 -142 12 l-32 16 5 -25 c6 -33 -7 -40 -42 -22 -39 19 -31 -1 12 -30 88
-60 285 -69 425 -20 87 30 180 89 242 152 47 48 51 58 10 23z"/>
</g>
</svg>
